<?xml version="1.0" encoding="utf-8"?>
<!-- Generator: Adobe Illustrator 19.0.0, SVG Export Plug-In . SVG Version: 6.00 Build 0)  -->
<svg version="1.1" id="Layer_1" xmlns="http://www.w3.org/2000/svg" xmlns:xlink="http://www.w3.org/1999/xlink" x="0px" y="0px"
	 viewBox="-351 153 256 256" style="enable-background:new -351 153 256 256;" xml:space="preserve">
<style type="text/css">
	.st0{fill:url(#XMLID_17_);}
	.st1{fill:url(#XMLID_18_);}
</style>
<g id="Logo_3_">
	
		<linearGradient id="XMLID_17_" gradientUnits="userSpaceOnUse" x1="-316.5" y1="263" x2="-166.9" y2="412.6" gradientTransform="matrix(1 0 0 -1 0 564)">
		<stop  offset="0" style="stop-color:#ED1C24"/>
		<stop  offset="1" style="stop-color:#F15A24"/>
	</linearGradient>
	<path id="XMLID_203_" class="st0" d="M-219.1,158.1l-3.9-5l-3.9,5c-0.3,0.4-34.3,42.3-99.2,44.6l-4.5,0.2l-0.4,4.4
		c-0.1,1.5-3,37.7,8.5,80.7c0.9,3.3,1.8,6.6,2.8,9.8c1.2,0.3,2.5,0.5,3.7,0.7c1.9,0.3,3.9,0.6,5.9,1c2,0.3,4,0.5,6.1,0.7
		c4.1,0.6,8.4,0.7,12.7,1c8.7,0.2,17.7,0,26.9-0.9c9.2-1,18.4-2.7,27.7-5c9.2-2.4,18.2-5.5,26.9-9.1c8.7-3.7,17-8,24.8-12.6
		c3.8-2.5,7.7-4.7,11.2-7.4c1.8-1.3,3.6-2.5,5.3-3.8s3.4-2.6,5-3.9c1.7-1.3,3.3-2.6,4.8-4c1.6-1.3,3.1-2.7,4.6-4
		c2.9-2.8,5.7-5.4,8.3-8c1.3-1.3,2.5-2.7,3.7-4c1.2-1.3,2.4-2.6,3.5-3.9c2.2-2.6,4.4-5,6.2-7.4c1.9-2.4,3.6-4.7,5.2-6.8
		c1.5-2.2,2.9-4.2,4.1-6c0.6-0.9,1.2-1.8,1.8-2.6c0.5-0.8,1-1.6,1.5-2.3c0.9-1.5,1.7-2.7,2.3-3.7c1.2-2,1.9-3.1,1.9-3.1l-4.5-0.2
		C-184.8,200.4-218.7,158.5-219.1,158.1z"/>
	
		<linearGradient id="XMLID_18_" gradientUnits="userSpaceOnUse" x1="-262.7778" y1="183.1331" x2="-114.5204" y2="331.3904" gradientTransform="matrix(1 0 0 -1 0 564)">
		<stop  offset="0" style="stop-color:#333333"/>
		<stop  offset="1" style="stop-color:#4D4D4D"/>
	</linearGradient>
	<path id="XMLID_202_" class="st1" d="M-115,207.3l-0.4-4.4c0,0-0.5,1.2-1.4,3.3c-0.5,1.1-1,2.4-1.7,4c-0.3,0.8-0.7,1.6-1.1,2.6
		c-0.4,0.9-0.9,1.8-1.4,2.8c-1,2-2,4.2-3.2,6.6c-1.3,2.4-2.7,4.9-4.2,7.6c-1.5,2.7-3.3,5.5-5.1,8.5c-0.9,1.5-1.9,3-3,4.5
		c-1,1.5-2.1,3.1-3.2,4.7c-2.2,3.2-4.7,6.3-7.3,9.6c-1.3,1.6-2.7,3.2-4.1,4.9c-1.4,1.7-2.8,3.3-4.4,4.9c-1.5,1.6-3.1,3.3-4.6,5
		c-1.6,1.6-3.3,3.2-5,4.9c-3.3,3.4-7,6.4-10.7,9.7c-7.6,6.2-15.8,12.3-24.7,17.8c-8.9,5.4-18.3,10.4-28.1,14.7
		c-9.8,4.2-20,7.7-30.3,10.5c-10.3,2.7-20.7,4.6-30.8,5.9c-4.6,0.4-9.1,0.9-13.5,1.1c18.2,32.5,44.6,56.8,78.1,71.5l2,0.9l2-0.9
		c48.5-21.2,82.2-62.7,97.5-120C-112.1,245-114.9,208.8-115,207.3z"/>
</g>
<g id="XMLID_1_">
</g>
<g id="XMLID_2_">
</g>
<g id="XMLID_3_">
</g>
<g id="XMLID_4_">
</g>
<g id="XMLID_5_">
</g>
<g id="XMLID_6_">
</g>
<g id="XMLID_7_">
</g>
<g id="XMLID_8_">
</g>
<g id="XMLID_9_">
</g>
<g id="XMLID_10_">
</g>
<g id="XMLID_11_">
</g>
<g id="XMLID_12_">
</g>
<g id="XMLID_13_">
</g>
<g id="XMLID_14_">
</g>
<g id="XMLID_15_">
</g>
</svg>
