<?xml version="1.0" encoding="utf-8"?>
<!-- Generator: Adobe Illustrator 19.0.0, SVG Export Plug-In . SVG Version: 6.00 Build 0)  -->
<svg version="1.1" id="Layer_1" xmlns="http://www.w3.org/2000/svg" xmlns:xlink="http://www.w3.org/1999/xlink" x="0px" y="0px"
	 viewBox="-327 187.8 295.3 175" style="enable-background:new -327 187.8 295.3 175;" xml:space="preserve">
<style type="text/css">
	.st0{fill:#28303B;}
</style>
<path id="XMLID_55_" class="st0" d="M-33.2,188l-4.3,1.8L-61,200.3l-5.5,4l-9.8,5l-4.2,1.1l-3.5-1l-5.8,7.3l-9.3,5.5l-24.2,9.7
	l-5.2,0.3l-2.9,1.3l-8.9,0.7l-10.6,6l-29.8,4.8l-18.9-2.1l-2.3-1.1l-24.2-1.1l-5.8-1.6l-2.9-0.5l-2.7-0.8l-5.3-3.1l-3.1-0.5l1.6,5
	l0.5,4.7l-0.2,10.2l-0.6,5.8l-1.9,5l-2.7,4l-3.5,2.9l-4.9,1.4l-3.5-1.3l-3.2-2.1l-4-1.1l-4.4-0.6l-0.1,0.4h-0.2l-0.1-0.4l-4-0.5
	h-2.4l0,0l-2.7,0.3l-2.3,1h-0.2l-2.1,0.9l-1.3,0.3l-0.8-0.2l-1.1-0.7l-0.7-0.2l-0.8,0.3l-0.3,0.8l-0.2,0.8l-2,1.5l-1.5,2.6l-1.8,4.8
	l-2.9,4l-3.9,3.7l-4.7,2.4l-5.3,0.2l-2.4-1l-2.1-1.8l-3.8-4.1l-2.6-1.8l-1.5,1l-0.5,2.9l0.5,3.9l1,2.4l2.7,4.8l0.6,2.9v3.4l0.2,1.6
	l2.4,4l-1.1,1.9v1.9l0.8,1.9l1,1.6l1.1,1.1l2.7,1.8l1.5,1.1l2.9,8.2v1.5l0.5,0.6l0.8,4.5l0.8,0.8l5.2,4l2.1,1.3l2.3,1l5.5,0.6
	l2.6,0.7l2.4,1l6.6,4l5,2.3l5.3,1l5.3-0.6l1.5-0.5l0,0l6.8-2.4l2.7-0.3l2.9,0.3l4.4,1.1l0.1,0.1l2.1,0.5h0.3l0,0l0,0l0,0l0,0
	l0.3-0.2l0.3,2.7l3.7,7.1l-0.5,2.9v1h11.4v-1l-2.7-3.5v-4.1l0.8-1.5l0,0l1.3-2.6l6-5.5l1.8-1.3l1.9-0.5l9.2-1.1l9.2,1.1l1.8-0.3
	l2.7-1.9l1.9-1l9.5-1.9l3.7-2.3l0.2-4.3l1.9,2.3l3.1-0.6l3.7-1.8l4-1l1.8-0.8l1.6-1.6l1.3-1.8l1.1-1.1l1.6-0.5h4.2l1.9-0.6l0.5-0.8
	l0.8-2.7l0.8-0.7l1.3-0.5l0.3-1.3l-0.3-3.1l0.2-2.7l0.7-2.7l0.8-2.6l1-1.9l3.4-3.4l2.7-1l0,0l2.1-0.8l5.5-0.3l0.6,0.1l0,0l0,0
	l1.6,0.3l0,0l0,0v0.4h0.3l0,0h0.5l0.4-0.1l2.2,0.4l1.9,1.3l3.5,3.5l1.9,0.6l1.6-0.5l1.1-1.3l0.6-0.8l-0.2-0.1l0.1-0.1l0.2,0.1
	l0.5-0.5l1-1.1l1.3-0.8l6-1.8l6.9-1l1.5,0.8l1.4,1.6l3.2,1l3.2,0.3l1.8-0.2l-1.5-1.1l-1.8-2.6l-1.5-2.7l-1.4-4.2l-1.9-2.3l-1.9-1.5
	l-2.3-0.7l0,0l-4.1-3.3l-1.4-1.9l-0.7-1.9l-1.1-1.6l-5.2-5.3l-1.8-1.3l1-12.2l0.7-2.9l1.4-2.9l3.5-5.2l2.6-1.5l3.1,0.3l3.2,0.8
	l2.9-0.2l1.9-1.5l1.1-2.1l2.3-5l3.1-3.7l3.7-3.2l27.6-16.6l11.4-10l12.3-7.9l0.7-0.5l3.1-0.6l1-0.3v-1.1l0.5-4.5l0.3-0.5l0.3-0.6
	l0.5-0.6l0.6-0.5L-33.2,188z"/>
<g id="XMLID_53_">
</g>
<g id="XMLID_54_">
</g>
<g id="XMLID_57_">
</g>
<g id="XMLID_58_">
</g>
<g id="XMLID_59_">
</g>
<g id="XMLID_60_">
</g>
<g id="XMLID_61_">
</g>
<g id="XMLID_62_">
</g>
<g id="XMLID_63_">
</g>
<g id="XMLID_64_">
</g>
<g id="XMLID_65_">
</g>
<g id="XMLID_66_">
</g>
<g id="XMLID_67_">
</g>
<g id="XMLID_68_">
</g>
<g id="XMLID_69_">
</g>
</svg>
